<mxfile host="app.diagrams.net" agent="Mozilla/5.0 (Windows NT 10.0; Win64; x64) AppleWebKit/537.36 (KHTML, like Gecko) Chrome/126.0.0.0 Safari/537.36" version="24.7.5">
  <diagram name="PÃ¡gina-1" id="BljEGhi1rwAELYqoWMW9">
    <mxGraphModel dx="888" dy="813" grid="1" gridSize="10" guides="1" tooltips="1" connect="1" arrows="1" fold="1" page="1" pageScale="1" pageWidth="850" pageHeight="1100" math="0" shadow="0">
      <root>
        <mxCell id="0" />
        <mxCell id="1" parent="0" />
        <mxCell id="bZrSzHXKFFpv_MeQmv-U-41" style="edgeStyle=orthogonalEdgeStyle;rounded=0;orthogonalLoop=1;jettySize=auto;html=1;exitX=0.5;exitY=0;exitDx=0;exitDy=0;entryX=0.5;entryY=1;entryDx=0;entryDy=0;" parent="1" source="bZrSzHXKFFpv_MeQmv-U-1" target="bZrSzHXKFFpv_MeQmv-U-40" edge="1">
          <mxGeometry relative="1" as="geometry" />
        </mxCell>
        <mxCell id="bZrSzHXKFFpv_MeQmv-U-42" style="edgeStyle=orthogonalEdgeStyle;rounded=0;orthogonalLoop=1;jettySize=auto;html=1;exitX=0.5;exitY=0;exitDx=0;exitDy=0;entryX=0.5;entryY=1;entryDx=0;entryDy=0;" parent="1" source="bZrSzHXKFFpv_MeQmv-U-1" target="bZrSzHXKFFpv_MeQmv-U-39" edge="1">
          <mxGeometry relative="1" as="geometry" />
        </mxCell>
        <mxCell id="bZrSzHXKFFpv_MeQmv-U-43" style="edgeStyle=orthogonalEdgeStyle;rounded=0;orthogonalLoop=1;jettySize=auto;html=1;exitX=0.5;exitY=0;exitDx=0;exitDy=0;entryX=0.5;entryY=1;entryDx=0;entryDy=0;" parent="1" source="bZrSzHXKFFpv_MeQmv-U-1" target="bZrSzHXKFFpv_MeQmv-U-38" edge="1">
          <mxGeometry relative="1" as="geometry" />
        </mxCell>
        <mxCell id="bZrSzHXKFFpv_MeQmv-U-44" style="edgeStyle=orthogonalEdgeStyle;rounded=0;orthogonalLoop=1;jettySize=auto;html=1;exitX=0.5;exitY=0;exitDx=0;exitDy=0;entryX=0.5;entryY=1;entryDx=0;entryDy=0;" parent="1" source="bZrSzHXKFFpv_MeQmv-U-1" target="bZrSzHXKFFpv_MeQmv-U-3" edge="1">
          <mxGeometry relative="1" as="geometry" />
        </mxCell>
        <mxCell id="bZrSzHXKFFpv_MeQmv-U-1" value="productos" style="rounded=0;whiteSpace=wrap;html=1;" parent="1" vertex="1">
          <mxGeometry x="130" y="290" width="120" height="60" as="geometry" />
        </mxCell>
        <mxCell id="bZrSzHXKFFpv_MeQmv-U-3" value="nombre" style="ellipse;whiteSpace=wrap;html=1;" parent="1" vertex="1">
          <mxGeometry x="65" y="200" width="60" height="40" as="geometry" />
        </mxCell>
        <mxCell id="bZrSzHXKFFpv_MeQmv-U-27" style="edgeStyle=orthogonalEdgeStyle;rounded=0;orthogonalLoop=1;jettySize=auto;html=1;exitX=0.5;exitY=0;exitDx=0;exitDy=0;entryX=0.5;entryY=1;entryDx=0;entryDy=0;" parent="1" source="bZrSzHXKFFpv_MeQmv-U-18" target="bZrSzHXKFFpv_MeQmv-U-19" edge="1">
          <mxGeometry relative="1" as="geometry" />
        </mxCell>
        <mxCell id="bZrSzHXKFFpv_MeQmv-U-28" style="edgeStyle=orthogonalEdgeStyle;rounded=0;orthogonalLoop=1;jettySize=auto;html=1;exitX=0.5;exitY=0;exitDx=0;exitDy=0;entryX=0.5;entryY=1;entryDx=0;entryDy=0;" parent="1" source="bZrSzHXKFFpv_MeQmv-U-18" target="bZrSzHXKFFpv_MeQmv-U-20" edge="1">
          <mxGeometry relative="1" as="geometry" />
        </mxCell>
        <mxCell id="bZrSzHXKFFpv_MeQmv-U-29" style="edgeStyle=orthogonalEdgeStyle;rounded=0;orthogonalLoop=1;jettySize=auto;html=1;exitX=0.5;exitY=0;exitDx=0;exitDy=0;entryX=0.5;entryY=1;entryDx=0;entryDy=0;" parent="1" source="bZrSzHXKFFpv_MeQmv-U-18" target="bZrSzHXKFFpv_MeQmv-U-23" edge="1">
          <mxGeometry relative="1" as="geometry" />
        </mxCell>
        <mxCell id="bZrSzHXKFFpv_MeQmv-U-30" style="edgeStyle=orthogonalEdgeStyle;rounded=0;orthogonalLoop=1;jettySize=auto;html=1;exitX=0.5;exitY=0;exitDx=0;exitDy=0;entryX=0.5;entryY=1;entryDx=0;entryDy=0;" parent="1" source="bZrSzHXKFFpv_MeQmv-U-18" target="bZrSzHXKFFpv_MeQmv-U-21" edge="1">
          <mxGeometry relative="1" as="geometry" />
        </mxCell>
        <mxCell id="bZrSzHXKFFpv_MeQmv-U-31" style="edgeStyle=orthogonalEdgeStyle;rounded=0;orthogonalLoop=1;jettySize=auto;html=1;exitX=0.5;exitY=0;exitDx=0;exitDy=0;entryX=0.5;entryY=1;entryDx=0;entryDy=0;" parent="1" source="bZrSzHXKFFpv_MeQmv-U-18" target="bZrSzHXKFFpv_MeQmv-U-25" edge="1">
          <mxGeometry relative="1" as="geometry" />
        </mxCell>
        <mxCell id="bZrSzHXKFFpv_MeQmv-U-32" style="edgeStyle=orthogonalEdgeStyle;rounded=0;orthogonalLoop=1;jettySize=auto;html=1;exitX=0.5;exitY=0;exitDx=0;exitDy=0;entryX=0.5;entryY=1;entryDx=0;entryDy=0;" parent="1" source="bZrSzHXKFFpv_MeQmv-U-18" target="bZrSzHXKFFpv_MeQmv-U-24" edge="1">
          <mxGeometry relative="1" as="geometry" />
        </mxCell>
        <mxCell id="bZrSzHXKFFpv_MeQmv-U-33" style="edgeStyle=orthogonalEdgeStyle;rounded=0;orthogonalLoop=1;jettySize=auto;html=1;exitX=0.5;exitY=0;exitDx=0;exitDy=0;entryX=0.5;entryY=1;entryDx=0;entryDy=0;" parent="1" source="bZrSzHXKFFpv_MeQmv-U-18" target="bZrSzHXKFFpv_MeQmv-U-22" edge="1">
          <mxGeometry relative="1" as="geometry" />
        </mxCell>
        <mxCell id="bZrSzHXKFFpv_MeQmv-U-34" style="edgeStyle=orthogonalEdgeStyle;rounded=0;orthogonalLoop=1;jettySize=auto;html=1;exitX=0.5;exitY=0;exitDx=0;exitDy=0;" parent="1" source="bZrSzHXKFFpv_MeQmv-U-18" target="bZrSzHXKFFpv_MeQmv-U-26" edge="1">
          <mxGeometry relative="1" as="geometry" />
        </mxCell>
        <mxCell id="bZrSzHXKFFpv_MeQmv-U-18" value="clientes" style="rounded=0;whiteSpace=wrap;html=1;" parent="1" vertex="1">
          <mxGeometry x="580" y="290" width="120" height="60" as="geometry" />
        </mxCell>
        <mxCell id="bZrSzHXKFFpv_MeQmv-U-19" value="nombre" style="ellipse;whiteSpace=wrap;html=1;" parent="1" vertex="1">
          <mxGeometry x="430" y="200" width="50" height="50" as="geometry" />
        </mxCell>
        <mxCell id="bZrSzHXKFFpv_MeQmv-U-20" value="apellido" style="ellipse;whiteSpace=wrap;html=1;" parent="1" vertex="1">
          <mxGeometry x="480" y="200" width="50" height="50" as="geometry" />
        </mxCell>
        <mxCell id="bZrSzHXKFFpv_MeQmv-U-21" value="telefono" style="ellipse;whiteSpace=wrap;html=1;" parent="1" vertex="1">
          <mxGeometry x="580" y="200" width="50" height="50" as="geometry" />
        </mxCell>
        <mxCell id="bZrSzHXKFFpv_MeQmv-U-22" value="colonia" style="ellipse;whiteSpace=wrap;html=1;" parent="1" vertex="1">
          <mxGeometry x="742" y="200" width="50" height="50" as="geometry" />
        </mxCell>
        <mxCell id="bZrSzHXKFFpv_MeQmv-U-23" value="mail" style="ellipse;whiteSpace=wrap;html=1;" parent="1" vertex="1">
          <mxGeometry x="530" y="200" width="50" height="50" as="geometry" />
        </mxCell>
        <mxCell id="bZrSzHXKFFpv_MeQmv-U-24" value="c.p" style="ellipse;whiteSpace=wrap;html=1;" parent="1" vertex="1">
          <mxGeometry x="691" y="200" width="50" height="50" as="geometry" />
        </mxCell>
        <mxCell id="bZrSzHXKFFpv_MeQmv-U-25" value="direccion" style="ellipse;whiteSpace=wrap;html=1;" parent="1" vertex="1">
          <mxGeometry x="635" y="200" width="50" height="50" as="geometry" />
        </mxCell>
        <mxCell id="bZrSzHXKFFpv_MeQmv-U-26" value="ciudad" style="ellipse;whiteSpace=wrap;html=1;" parent="1" vertex="1">
          <mxGeometry x="800" y="200" width="50" height="50" as="geometry" />
        </mxCell>
        <mxCell id="bZrSzHXKFFpv_MeQmv-U-55" style="edgeStyle=orthogonalEdgeStyle;rounded=0;orthogonalLoop=1;jettySize=auto;html=1;exitX=0.5;exitY=1;exitDx=0;exitDy=0;entryX=0.5;entryY=0;entryDx=0;entryDy=0;" parent="1" source="bZrSzHXKFFpv_MeQmv-U-37" target="bZrSzHXKFFpv_MeQmv-U-53" edge="1">
          <mxGeometry relative="1" as="geometry" />
        </mxCell>
        <mxCell id="bZrSzHXKFFpv_MeQmv-U-56" style="edgeStyle=orthogonalEdgeStyle;rounded=0;orthogonalLoop=1;jettySize=auto;html=1;exitX=0.5;exitY=1;exitDx=0;exitDy=0;entryX=0.5;entryY=0;entryDx=0;entryDy=0;" parent="1" source="bZrSzHXKFFpv_MeQmv-U-37" target="bZrSzHXKFFpv_MeQmv-U-54" edge="1">
          <mxGeometry relative="1" as="geometry" />
        </mxCell>
        <mxCell id="bZrSzHXKFFpv_MeQmv-U-57" style="edgeStyle=orthogonalEdgeStyle;rounded=0;orthogonalLoop=1;jettySize=auto;html=1;exitX=0.5;exitY=1;exitDx=0;exitDy=0;entryX=0.5;entryY=0;entryDx=0;entryDy=0;" parent="1" source="bZrSzHXKFFpv_MeQmv-U-37" target="bZrSzHXKFFpv_MeQmv-U-49" edge="1">
          <mxGeometry relative="1" as="geometry" />
        </mxCell>
        <mxCell id="bZrSzHXKFFpv_MeQmv-U-58" style="edgeStyle=orthogonalEdgeStyle;rounded=0;orthogonalLoop=1;jettySize=auto;html=1;exitX=0.5;exitY=1;exitDx=0;exitDy=0;entryX=0.5;entryY=0;entryDx=0;entryDy=0;" parent="1" source="bZrSzHXKFFpv_MeQmv-U-37" target="bZrSzHXKFFpv_MeQmv-U-50" edge="1">
          <mxGeometry relative="1" as="geometry" />
        </mxCell>
        <mxCell id="bZrSzHXKFFpv_MeQmv-U-59" style="edgeStyle=orthogonalEdgeStyle;rounded=0;orthogonalLoop=1;jettySize=auto;html=1;exitX=0.5;exitY=1;exitDx=0;exitDy=0;entryX=0.5;entryY=0;entryDx=0;entryDy=0;" parent="1" source="bZrSzHXKFFpv_MeQmv-U-37" target="bZrSzHXKFFpv_MeQmv-U-52" edge="1">
          <mxGeometry relative="1" as="geometry" />
        </mxCell>
        <mxCell id="M4125-w1baEoedrc7Fhv-16" style="edgeStyle=orthogonalEdgeStyle;rounded=0;orthogonalLoop=1;jettySize=auto;html=1;exitX=1;exitY=0.5;exitDx=0;exitDy=0;" edge="1" parent="1" source="bZrSzHXKFFpv_MeQmv-U-37" target="M4125-w1baEoedrc7Fhv-6">
          <mxGeometry relative="1" as="geometry" />
        </mxCell>
        <mxCell id="bZrSzHXKFFpv_MeQmv-U-37" value="ventas" style="rounded=0;whiteSpace=wrap;html=1;" parent="1" vertex="1">
          <mxGeometry x="130" y="510" width="120" height="60" as="geometry" />
        </mxCell>
        <mxCell id="bZrSzHXKFFpv_MeQmv-U-38" value="descripcion" style="ellipse;whiteSpace=wrap;html=1;" parent="1" vertex="1">
          <mxGeometry x="130" y="200" width="60" height="40" as="geometry" />
        </mxCell>
        <mxCell id="bZrSzHXKFFpv_MeQmv-U-39" value="precio" style="ellipse;whiteSpace=wrap;html=1;" parent="1" vertex="1">
          <mxGeometry x="190" y="200" width="60" height="40" as="geometry" />
        </mxCell>
        <mxCell id="bZrSzHXKFFpv_MeQmv-U-40" value="sku" style="ellipse;whiteSpace=wrap;html=1;" parent="1" vertex="1">
          <mxGeometry x="250" y="200" width="60" height="40" as="geometry" />
        </mxCell>
        <mxCell id="bZrSzHXKFFpv_MeQmv-U-46" style="edgeStyle=orthogonalEdgeStyle;rounded=0;orthogonalLoop=1;jettySize=auto;html=1;exitX=1;exitY=0.5;exitDx=0;exitDy=0;entryX=0;entryY=0.5;entryDx=0;entryDy=0;" parent="1" source="bZrSzHXKFFpv_MeQmv-U-45" target="bZrSzHXKFFpv_MeQmv-U-18" edge="1">
          <mxGeometry relative="1" as="geometry" />
        </mxCell>
        <mxCell id="bZrSzHXKFFpv_MeQmv-U-47" style="edgeStyle=orthogonalEdgeStyle;rounded=0;orthogonalLoop=1;jettySize=auto;html=1;exitX=0;exitY=0.5;exitDx=0;exitDy=0;entryX=1;entryY=0.5;entryDx=0;entryDy=0;" parent="1" source="bZrSzHXKFFpv_MeQmv-U-45" target="bZrSzHXKFFpv_MeQmv-U-1" edge="1">
          <mxGeometry relative="1" as="geometry" />
        </mxCell>
        <mxCell id="bZrSzHXKFFpv_MeQmv-U-48" style="edgeStyle=orthogonalEdgeStyle;rounded=0;orthogonalLoop=1;jettySize=auto;html=1;exitX=0.5;exitY=1;exitDx=0;exitDy=0;entryX=0.5;entryY=0;entryDx=0;entryDy=0;" parent="1" source="bZrSzHXKFFpv_MeQmv-U-45" target="bZrSzHXKFFpv_MeQmv-U-37" edge="1">
          <mxGeometry relative="1" as="geometry" />
        </mxCell>
        <mxCell id="bZrSzHXKFFpv_MeQmv-U-45" value="" style="rhombus;whiteSpace=wrap;html=1;" parent="1" vertex="1">
          <mxGeometry x="365" y="280" width="80" height="80" as="geometry" />
        </mxCell>
        <mxCell id="bZrSzHXKFFpv_MeQmv-U-49" value="productos" style="ellipse;whiteSpace=wrap;html=1;" parent="1" vertex="1">
          <mxGeometry x="155" y="640" width="65" height="50" as="geometry" />
        </mxCell>
        <mxCell id="bZrSzHXKFFpv_MeQmv-U-50" value="cantidad" style="ellipse;whiteSpace=wrap;html=1;" parent="1" vertex="1">
          <mxGeometry x="225" y="640" width="65" height="50" as="geometry" />
        </mxCell>
        <mxCell id="bZrSzHXKFFpv_MeQmv-U-52" value="total" style="ellipse;whiteSpace=wrap;html=1;" parent="1" vertex="1">
          <mxGeometry x="290" y="640" width="65" height="50" as="geometry" />
        </mxCell>
        <mxCell id="bZrSzHXKFFpv_MeQmv-U-53" value="fecha" style="ellipse;whiteSpace=wrap;html=1;" parent="1" vertex="1">
          <mxGeometry x="25" y="640" width="65" height="50" as="geometry" />
        </mxCell>
        <mxCell id="bZrSzHXKFFpv_MeQmv-U-54" value="cliente" style="ellipse;whiteSpace=wrap;html=1;" parent="1" vertex="1">
          <mxGeometry x="90" y="640" width="65" height="50" as="geometry" />
        </mxCell>
        <mxCell id="bZrSzHXKFFpv_MeQmv-U-60" value="abarrotes don Rufino" style="shape=cylinder3;whiteSpace=wrap;html=1;boundedLbl=1;backgroundOutline=1;size=15;" parent="1" vertex="1">
          <mxGeometry x="375" y="10" width="60" height="80" as="geometry" />
        </mxCell>
        <mxCell id="bZrSzHXKFFpv_MeQmv-U-61" value="Diagrama Relacional&lt;div&gt;by&amp;nbsp;&lt;/div&gt;&lt;div&gt;Javier Romo&lt;/div&gt;" style="text;html=1;align=center;verticalAlign=middle;whiteSpace=wrap;rounded=0;" parent="1" vertex="1">
          <mxGeometry x="275" y="110" width="260" height="30" as="geometry" />
        </mxCell>
        <mxCell id="M4125-w1baEoedrc7Fhv-1" style="edgeStyle=orthogonalEdgeStyle;rounded=0;orthogonalLoop=1;jettySize=auto;html=1;exitX=0.5;exitY=1;exitDx=0;exitDy=0;entryX=0.5;entryY=0;entryDx=0;entryDy=0;" edge="1" parent="1" source="M4125-w1baEoedrc7Fhv-6" target="M4125-w1baEoedrc7Fhv-10">
          <mxGeometry relative="1" as="geometry" />
        </mxCell>
        <mxCell id="M4125-w1baEoedrc7Fhv-3" style="edgeStyle=orthogonalEdgeStyle;rounded=0;orthogonalLoop=1;jettySize=auto;html=1;exitX=0.5;exitY=1;exitDx=0;exitDy=0;entryX=0.5;entryY=0;entryDx=0;entryDy=0;" edge="1" parent="1" source="M4125-w1baEoedrc7Fhv-6" target="M4125-w1baEoedrc7Fhv-7">
          <mxGeometry relative="1" as="geometry" />
        </mxCell>
        <mxCell id="M4125-w1baEoedrc7Fhv-13" style="edgeStyle=orthogonalEdgeStyle;rounded=0;orthogonalLoop=1;jettySize=auto;html=1;exitX=0.5;exitY=1;exitDx=0;exitDy=0;entryX=0.5;entryY=0;entryDx=0;entryDy=0;" edge="1" parent="1" source="M4125-w1baEoedrc7Fhv-6" target="M4125-w1baEoedrc7Fhv-8">
          <mxGeometry relative="1" as="geometry" />
        </mxCell>
        <mxCell id="M4125-w1baEoedrc7Fhv-6" value="detalleventa" style="rounded=0;whiteSpace=wrap;html=1;" vertex="1" parent="1">
          <mxGeometry x="495" y="520" width="120" height="60" as="geometry" />
        </mxCell>
        <mxCell id="M4125-w1baEoedrc7Fhv-7" value="id_producto" style="ellipse;whiteSpace=wrap;html=1;" vertex="1" parent="1">
          <mxGeometry x="565" y="650" width="65" height="50" as="geometry" />
        </mxCell>
        <mxCell id="M4125-w1baEoedrc7Fhv-8" value="cantidad" style="ellipse;whiteSpace=wrap;html=1;" vertex="1" parent="1">
          <mxGeometry x="660" y="650" width="65" height="50" as="geometry" />
        </mxCell>
        <mxCell id="M4125-w1baEoedrc7Fhv-10" value="id_detalleventa" style="ellipse;whiteSpace=wrap;html=1;" vertex="1" parent="1">
          <mxGeometry x="390" y="650" width="90" height="50" as="geometry" />
        </mxCell>
        <mxCell id="M4125-w1baEoedrc7Fhv-12" style="edgeStyle=orthogonalEdgeStyle;rounded=0;orthogonalLoop=1;jettySize=auto;html=1;exitX=0.5;exitY=0;exitDx=0;exitDy=0;entryX=0.5;entryY=1;entryDx=0;entryDy=0;" edge="1" parent="1" source="M4125-w1baEoedrc7Fhv-11" target="M4125-w1baEoedrc7Fhv-6">
          <mxGeometry relative="1" as="geometry" />
        </mxCell>
        <mxCell id="M4125-w1baEoedrc7Fhv-11" value="id_venta" style="ellipse;whiteSpace=wrap;html=1;" vertex="1" parent="1">
          <mxGeometry x="490" y="650" width="65" height="50" as="geometry" />
        </mxCell>
      </root>
    </mxGraphModel>
  </diagram>
</mxfile>
